<?xml version="1.0" encoding="UTF-8" standalone="no"?>
<!-- Created with Inkscape (http://www.inkscape.org/) -->

<svg
   width="88.518356mm"
   height="75.850563mm"
   viewBox="0 0 88.518356 75.850561"
   version="1.1"
   id="svg1"
   xml:space="preserve"
   inkscape:version="1.4 (86a8ad7, 2024-10-11)"
   sodipodi:docname="GPA Banner.svg"
   inkscape:export-filename="T:\Development\Projects\Profolio\project\public\images\gpa_banner.png"
   inkscape:export-xdpi="96"
   inkscape:export-ydpi="96"
   xmlns:inkscape="http://www.inkscape.org/namespaces/inkscape"
   xmlns:sodipodi="http://sodipodi.sourceforge.net/DTD/sodipodi-0.dtd"
   xmlns="http://www.w3.org/2000/svg"
   xmlns:svg="http://www.w3.org/2000/svg"><sodipodi:namedview
     id="namedview1"
     pagecolor="#ffffff"
     bordercolor="#000000"
     borderopacity="0.25"
     inkscape:showpageshadow="2"
     inkscape:pageopacity="0.0"
     inkscape:pagecheckerboard="0"
     inkscape:deskcolor="#d1d1d1"
     inkscape:document-units="mm"
     showguides="true"
     inkscape:zoom="1.4892945"
     inkscape:cx="24.508248"
     inkscape:cy="122.20551"
     inkscape:window-width="1918"
     inkscape:window-height="1528"
     inkscape:window-x="1913"
     inkscape:window-y="600"
     inkscape:window-maximized="0"
     inkscape:current-layer="layer1" /><defs
     id="defs1" /><g
     inkscape:label="Layer 1"
     inkscape:groupmode="layer"
     id="layer1"
     transform="translate(-11.353419,-35.028331)"><circle
       style="display:inline;fill:none;stroke:#333333;stroke-width:0.932533;stroke-dasharray:none;stroke-opacity:1"
       id="path2"
       cx="47.057991"
       cy="73.575417"
       r="31.685169" /><path
       style="display:inline;opacity:1;fill:#333333;fill-opacity:1;stroke:#333333;stroke-width:0.423879;stroke-dasharray:none;stroke-opacity:1"
       d="m 46.040978,105.04302 c -5.462214,-0.17718 -10.698167,-1.73337 -15.343176,-4.56017 -1.534154,-0.933638 -3.00099,-2.009618 -4.36185,-3.199568 -0.566069,-0.49497 -0.903746,-0.81269 -1.54,-1.44894 -0.769251,-0.76926 -1.273972,-1.318928 -1.906392,-2.076167 -1.894897,-2.26888 -3.441485,-4.754191 -4.641291,-7.458396 -1.331401,-3.000793 -2.190112,-6.257474 -2.518096,-9.549926 -0.0617,-0.619312 -0.101036,-1.176988 -0.135572,-1.921667 -0.01827,-0.394096 -0.01823,-2.109129 6.6e-5,-2.505596 0.07507,-1.626643 0.22288,-2.96914 0.486277,-4.416644 0.658406,-3.618286 1.926089,-7.033233 3.803235,-10.245339 0.299496,-0.512487 0.348694,-0.579992 0.492257,-0.675433 0.155472,-0.103357 0.320788,-0.149097 0.501979,-0.138888 0.13456,0.0075 0.208995,0.02714 0.330973,0.08697 0.283782,0.139189 0.467998,0.459837 0.44629,0.776816 -0.004,0.05767 -0.03097,0.181871 -0.08082,0.371592 -0.543716,2.068943 -0.669964,3.961358 -0.38732,5.805771 0.231087,1.50799 0.74243,2.934455 1.5256,4.255879 0.319282,0.538717 0.466698,0.894389 0.607805,1.466459 0.0912,0.369721 0.152333,0.721523 0.249108,1.433478 0.08297,0.610367 0.135344,0.925263 0.208376,1.252798 0.07745,0.347352 0.140326,0.493134 0.260759,0.604638 0.112277,0.103953 0.237069,0.163168 0.651142,0.308968 0.373398,0.131486 0.744312,0.291592 1.113708,0.480741 0.300805,0.15403 0.499362,0.269753 0.776106,0.452327 0.602766,0.397656 1.064053,0.805418 1.542429,1.363461 0.306314,0.357327 1.893757,2.167011 2.543777,2.899906 0.182342,0.205595 0.202982,0.240678 0.202982,0.345051 0,0.113697 -0.02585,0.156435 -0.16344,0.270322 -0.421926,0.349215 -0.660081,0.783641 -0.590983,1.078032 0.02463,0.104907 0.08122,0.215357 0.223076,0.435294 0.141132,0.218821 0.225574,0.38301 0.267558,0.520229 0.02727,0.08916 0.02924,0.10833 0.02924,0.286659 0,0.177121 -0.0021,0.198093 -0.02873,0.286654 -0.04728,0.157189 -0.142177,0.333506 -0.331146,0.615219 -0.09642,0.143738 -0.191338,0.293445 -0.210933,0.332675 -0.142852,0.285998 -0.16128,0.629747 -0.0595,1.109905 0.07553,0.356363 0.32724,1.194789 0.488701,1.627887 0.267949,0.718728 0.548845,1.190431 0.944232,1.585622 0.293206,0.29306 0.563639,0.493157 1.348345,0.997668 0.689387,0.44323 0.991061,0.671893 1.316577,0.997959 0.731284,0.73252 1.264847,1.723252 1.725576,3.204094 0.56286,1.809105 0.867934,2.701643 1.24283,3.636072 0.286715,0.71463 0.668223,1.50233 1.051695,2.17141 0.857313,1.49582 1.753088,2.451708 2.544748,2.715518 0.227747,0.0759 0.476379,0.10338 0.551542,0.0609 0.01293,-0.008 -0.07366,-0.16062 -0.246727,-0.4369 -0.232046,-0.370448 -0.317954,-0.520778 -0.455762,-0.797588 -0.314138,-0.63097 -0.497717,-1.26128 -0.554542,-1.90397 -0.01793,-0.20277 -0.0069,-0.60552 0.02103,-0.76618 0.07523,-0.43317 0.233491,-0.77406 0.52246,-1.12539 0.04803,-0.0584 0.178515,-0.19457 0.289971,-0.30259 0.385227,-0.37337 0.60648,-0.60019 0.668028,-0.684791 0.03398,-0.04672 0.11692,-0.182878 0.184309,-0.302585 0.0674,-0.119705 0.231343,-0.399247 0.364344,-0.621205 0.480456,-0.801804 0.592798,-1.026413 0.764616,-1.528722 0.125973,-0.368283 0.234352,-0.569406 0.389774,-0.723323 0.103265,-0.102266 0.210829,-0.172492 0.466379,-0.304496 0.115879,-0.05985 0.239936,-0.128754 0.275684,-0.153107 0.515438,-0.351133 0.88,-0.942216 1.11815,-1.812912 0.08452,-0.309027 0.136011,-0.579576 0.250563,-1.31664 0.171044,-1.100563 0.308122,-1.617065 0.568415,-2.141771 0.09245,-0.186368 0.132041,-0.254107 0.296371,-0.507151 0.183896,-0.283168 0.240918,-0.379854 0.29057,-0.492683 0.03942,-0.08958 0.04282,-0.105024 0.04694,-0.213702 0.0053,-0.136902 -0.01352,-0.254695 -0.06278,-0.395385 -0.242781,-0.693282 -1.029908,-1.178228 -2.132628,-1.313905 -0.217561,-0.02677 -0.780159,-0.03228 -1.162554,-0.01134 -0.657241,0.03595 -0.948139,0.04314 -1.203141,0.02976 -0.537273,-0.02817 -0.897853,-0.115234 -1.288619,-0.311117 -0.382842,-0.191911 -0.756872,-0.502906 -0.968743,-0.805471 -0.181579,-0.259308 -0.25744,-0.461507 -0.328759,-0.876268 -0.05369,-0.312219 -0.07544,-0.389561 -0.141036,-0.501513 -0.07882,-0.134519 -0.307941,-0.322778 -0.74646,-0.613324 -1.406943,-0.932201 -3.106115,-1.538078 -4.974033,-1.773611 -0.19435,-0.02451 -0.248838,-0.02744 -0.424678,-0.02279 -0.379062,0.01004 -0.600307,0.06919 -1.024534,0.274025 -0.20729,0.100083 -0.220931,0.105079 -0.286658,0.10497 -0.08462,-1.4e-4 -0.159848,-0.03201 -0.209733,-0.08881 -0.01892,-0.02157 -0.06466,-0.102552 -0.101639,-0.180007 -0.143352,-0.30025 -0.438317,-0.843775 -0.66358,-1.22277 -0.73964,-1.244405 -1.692104,-2.513197 -2.620004,-3.490152 C 27.821332,73.014639 27.683093,72.894227 27.05791,72.407572 26.477702,71.955923 26.23634,71.75098 25.957946,71.473581 25.577089,71.094084 25.350522,70.789995 25.162623,70.406135 25.037584,70.150694 24.958772,69.91745 24.9133,69.668257 24.88929,69.53671 24.88,69.205328 24.89674,69.078183 c 0.04374,-0.332056 0.176897,-0.621196 0.387865,-0.842237 0.193545,-0.202782 0.447904,-0.340806 0.746652,-0.405144 0.132529,-0.02854 0.452726,-0.0397 0.604081,-0.02107 0.431424,0.05315 0.825053,0.226466 1.165751,0.513297 0.316315,0.266306 0.609022,0.639075 0.960415,1.223126 0.07729,0.128465 0.153196,0.247316 0.16868,0.264114 0.07336,0.07959 0.211964,0.103899 0.316051,0.05544 0.06187,-0.0288 0.09733,-0.07024 0.137647,-0.160839 0.05732,-0.128791 0.0684,-0.219684 0.07889,-0.647088 0.0096,-0.389231 0.01779,-0.498927 0.04896,-0.652944 0.05252,-0.259351 0.188934,-0.527639 0.377896,-0.74318 0.203281,-0.23188 0.444754,-0.416358 0.958518,-0.732272 0.671541,-0.412938 0.898723,-0.609327 1.084821,-0.937784 0.125231,-0.221027 0.200615,-0.462664 0.337244,-1.080989 0.112267,-0.508079 0.180722,-0.744927 0.282266,-0.976616 0.323668,-0.738511 0.94873,-1.239859 1.979744,-1.587913 0.274606,-0.0927 0.531228,-0.164782 1.108822,-0.311444 0.63356,-0.160875 0.826648,-0.215302 1.131351,-0.318904 0.401504,-0.136516 0.759271,-0.288144 1.12936,-0.478643 0.299633,-0.154233 0.375018,-0.206118 0.464027,-0.319382 0.09392,-0.119508 0.139652,-0.256869 0.109644,-0.329313 -0.0079,-0.01902 -0.05856,-0.09341 -0.112641,-0.165316 -0.151778,-0.201819 -0.209321,-0.321573 -0.236995,-0.493211 -0.01801,-0.111745 -0.0085,-0.307713 0.02025,-0.418593 0.0901,-0.347029 0.336798,-0.671241 0.680731,-0.894613 0.131311,-0.08528 0.362282,-0.198122 0.652942,-0.318995 0.475303,-0.197659 0.641056,-0.293506 0.824178,-0.476577 0.214133,-0.214072 0.346309,-0.472859 0.415513,-0.813529 0.02075,-0.102172 0.02367,-0.148673 0.02329,-0.371593 -4.07e-4,-0.236691 -0.0025,-0.264618 -0.0297,-0.392826 -0.09233,-0.435568 -0.268429,-0.75967 -0.571084,-1.051077 -0.191455,-0.184338 -0.386823,-0.318947 -0.640964,-0.441624 -0.310208,-0.149742 -0.614941,-0.238061 -1.008609,-0.292322 -0.192866,-0.02658 -0.704684,-0.02686 -0.90118,-4.97e-4 -0.757756,0.101712 -1.258179,0.344086 -1.564256,0.75763 -0.169935,0.229601 -0.267353,0.44617 -0.464749,1.033182 -0.156474,0.465317 -0.19613,0.571404 -0.277469,0.74227 -0.121109,0.254412 -0.28004,0.458568 -0.475484,0.610792 -0.28613,0.222853 -0.582816,0.330241 -0.945844,0.342353 -0.26881,0.009 -0.45815,-0.02249 -0.679483,-0.11289 -0.214425,-0.08758 -0.376954,-0.198871 -0.557526,-0.381766 -0.338601,-0.342955 -0.602363,-0.755348 -0.732228,-1.144841 -0.07397,-0.221854 -0.09672,-0.358281 -0.103299,-0.619329 -0.0037,-0.147088 -0.0012,-0.268591 0.007,-0.339741 0.07679,-0.668652 0.44754,-1.350465 1.053574,-1.937533 0.430219,-0.416755 0.781406,-0.656153 1.825407,-1.244353 0.710227,-0.400146 0.987109,-0.572868 1.309988,-0.817182 0.658728,-0.498442 0.939507,-0.873009 0.957996,-1.278002 0.0065,-0.142365 -0.0086,-0.228698 -0.06399,-0.365115 -0.04562,-0.112417 -0.10215,-0.196015 -0.194724,-0.287954 -0.243783,-0.242112 -0.689856,-0.421724 -1.236721,-0.497967 -0.341231,-0.04757 -1.054923,-0.02463 -1.686809,0.05423 -2.620517,0.32704 -5.234542,1.619089 -7.695804,3.803851 -0.0897,0.07962 -0.199584,0.172353 -0.24419,0.206066 -0.100881,0.07625 -0.285702,0.168731 -0.405406,0.202858 -0.498219,0.14204 -0.991416,-0.06585 -1.162787,-0.490113 -0.04665,-0.115501 -0.06023,-0.184389 -0.06548,-0.332258 -0.0058,-0.163521 0.0081,-0.254352 0.05943,-0.386366 0.06868,-0.176874 0.09451,-0.2074 0.61601,-0.727868 0.57403,-0.572901 0.926945,-0.903878 1.471683,-1.380205 4.918008,-4.300377 11.028458,-6.959344 17.491396,-7.611394 1.230498,-0.124146 2.183424,-0.16669 3.508895,-0.156658 0.776967,0.0059 0.970706,0.01137 1.581923,0.04489 4.826526,0.264633 9.594735,1.58826 13.892257,3.856411 2.006845,1.059173 3.863396,2.308556 5.319085,3.579523 0.362675,0.316654 0.795433,0.727883 0.871772,0.828399 0.06818,0.08979 0.140939,0.23805 0.169598,0.345628 0.02898,0.10882 0.03247,0.323264 0.007,0.436821 -0.104997,0.46942 -0.516905,0.789352 -0.984719,0.764839 -0.211296,-0.01108 -0.740125,-0.13089 -1.220947,-0.276636 -0.857982,-0.260069 -1.616795,-0.557562 -3.848636,-1.50886 -1.882027,-0.802193 -2.896267,-1.193458 -3.908003,-1.507595 -1.754551,-0.544778 -3.060225,-0.664394 -4.038771,-0.370003 -0.443546,0.13344 -0.846963,0.37282 -1.120137,0.664673 -0.312821,0.334206 -0.652849,0.899708 -0.873985,1.45353 -0.240624,0.602609 -0.387437,1.281503 -0.387627,1.792442 -1.12e-4,0.300728 0.03762,0.558515 0.116102,0.793679 0.07771,0.232792 0.163593,0.375993 0.316737,0.528129 0.225368,0.223887 0.469369,0.313841 0.677184,0.249653 0.03753,-0.01159 0.115234,-0.04304 0.172664,-0.06987 0.05743,-0.02684 0.140686,-0.05863 0.185021,-0.07064 0.217865,-0.05907 0.729929,7.68e-4 0.974812,0.113909 0.319151,0.147457 0.501341,0.454151 0.501788,0.844687 1.95e-4,0.171344 -0.03282,0.27381 -0.123657,0.383726 -0.09265,0.112121 -0.210501,0.177061 -0.381423,0.210176 -0.198966,0.03855 -0.316475,0.08349 -0.455904,0.17438 -0.117368,0.07651 -0.222483,0.169134 -0.314724,0.277348 -0.134356,0.157621 -0.17837,0.230219 -0.427675,0.705436 -0.327119,0.623552 -0.546604,0.813807 -1.27453,1.104801 -0.385049,0.153927 -0.526175,0.231157 -0.647629,0.354414 -0.115565,0.117275 -0.168378,0.250773 -0.168256,0.425291 1.36e-4,0.192814 0.06869,0.366876 0.194784,0.494581 0.06205,0.06284 0.08815,0.07924 0.258479,0.162401 0.174491,0.08519 0.195462,0.09854 0.265479,0.168977 0.13055,0.131338 0.181282,0.256871 0.181092,0.448072 -1.39e-4,0.136897 -0.01812,0.216104 -0.07718,0.339743 -0.08128,0.170184 -0.214213,0.299558 -0.399591,0.388901 -0.189905,0.09153 -0.355482,0.12628 -0.700714,0.147082 -0.429059,0.02586 -0.548024,0.06082 -0.684794,0.20128 -0.08662,0.08895 -0.131481,0.164302 -0.177037,0.297367 -0.08917,0.260445 -0.06478,0.544112 0.0708,0.823333 0.2038,0.419729 0.641978,0.7522 1.128774,0.856461 0.140776,0.03015 0.456166,0.03322 0.612474,0.006 0.486009,-0.08475 0.947022,-0.324854 1.363575,-0.710189 0.140175,-0.129669 0.285224,-0.298411 0.486781,-0.566302 0.302027,-0.40143 0.421643,-0.541439 0.59154,-0.692401 0.245443,-0.218094 0.532744,-0.363034 0.817504,-0.412419 0.139474,-0.02419 0.395032,-0.01658 0.51492,0.01533 0.09893,0.02633 0.261586,0.102042 0.338869,0.157734 0.02966,0.02138 0.135239,0.118529 0.234579,0.215878 0.196005,0.192071 0.250915,0.233186 0.353994,0.265043 0.123559,0.03818 0.223126,0.01972 0.298126,-0.05528 0.062,-0.06199 0.06339,-0.07614 0.03193,-0.321673 -0.05215,-0.407088 0.236608,-0.807347 0.673868,-0.934059 0.231993,-0.06724 0.535793,-0.05921 0.769634,0.02034 0.04196,0.01427 0.118445,0.04818 0.169965,0.07534 0.09424,0.04969 0.135246,0.08206 0.375897,0.296714 0.516544,0.460751 1.21709,0.872949 2.036191,1.198089 0.677771,0.269037 1.351419,0.463962 2.206358,0.638422 0.182213,0.03718 0.345073,0.07739 0.435294,0.107479 0.887593,0.295967 1.530033,1.059358 1.674576,1.989839 0.01352,0.08692 0.01895,0.183941 0.01904,0.339364 1.36e-4,0.191048 -0.0027,0.229247 -0.02378,0.312563 -0.02858,0.11333 -0.10033,0.269141 -0.166821,0.362318 -0.147627,0.206879 -0.395467,0.369541 -0.647527,0.424976 -0.137318,0.0302 -0.352706,0.02599 -0.497122,-0.0097 -0.266113,-0.0658 -0.616409,-0.192581 -1.127269,-0.407993 -0.424505,-0.179002 -0.586511,-0.242304 -0.775583,-0.303067 -0.339531,-0.109112 -0.561593,-0.136888 -0.663009,-0.08293 -0.02732,0.01451 -0.141071,0.117133 -0.265425,0.239376 -0.119706,0.117675 -0.259854,0.245388 -0.311441,0.283809 -0.605716,0.451097 -1.413891,0.586113 -2.125145,0.355026 -0.142405,-0.04627 -0.380528,-0.161925 -0.509612,-0.247515 -0.366809,-0.243215 -0.636644,-0.55386 -0.840926,-0.968097 -0.07072,-0.143404 -0.09071,-0.174427 -0.151131,-0.234534 -0.107765,-0.107193 -0.231319,-0.159138 -0.379118,-0.159387 -0.0532,-8.6e-5 -0.377073,0.0553 -1.082924,0.185184 -4.001428,0.736318 -3.696457,0.678875 -3.958527,0.745641 -0.747816,0.19051 -1.153018,0.491331 -1.370247,1.017257 -0.06141,0.148684 -0.1148,0.313404 -0.211622,0.652943 -0.144942,0.508287 -0.212581,0.687746 -0.386153,1.024532 -0.121062,0.234904 -0.238846,0.429511 -0.526925,0.870587 -0.52404,0.802362 -0.647142,1.032793 -0.794073,1.486373 -0.159013,0.490879 -0.216074,0.941419 -0.206307,1.629017 0.0079,0.560308 0.05777,1.051729 0.183541,1.810868 0.306283,1.848647 0.880929,2.958655 1.813906,3.50378 0.550949,0.321915 1.259268,0.430587 2.140202,0.328362 0.396124,-0.04597 0.724987,-0.11206 1.475755,-0.296597 0.661897,-0.162694 0.872638,-0.211441 1.141318,-0.264014 0.830874,-0.162563 1.490311,-0.18263 2.10099,-0.06393 0.421494,0.08193 0.678296,0.203184 0.877158,0.414187 0.151303,0.160532 0.246574,0.353777 0.297982,0.604394 0.033,0.160939 0.03884,0.508324 0.01442,0.859326 -0.02424,0.348274 -0.02442,0.642163 -4.52e-4,0.784608 0.04825,0.287201 0.142216,0.448682 0.494889,0.850399 0.284222,0.32374 0.40282,0.491141 0.526537,0.743187 0.1252,0.255079 0.205621,0.525703 0.255559,0.85997 0.02758,0.184591 0.02771,0.783284 2.17e-4,1.003299 -0.0622,0.4979 -0.141858,0.833348 -0.39455,1.661549 -0.182271,0.597404 -0.242997,0.813308 -0.302068,1.073927 -0.142437,0.628458 -0.158018,1.119843 -0.05265,1.659935 0.07909,0.405339 0.196344,0.776317 0.516806,1.635008 0.337401,0.904089 0.446025,1.272495 0.521554,1.768899 0.03364,0.221026 0.09005,0.34157 0.218096,0.465964 0.117084,0.113742 0.251305,0.176638 0.423335,0.198365 0.08994,0.01134 0.110789,0.01008 0.272511,-0.0169 1.216747,-0.202895 2.376611,-0.87487 3.126163,-1.811162 0.274419,-0.34278 0.424067,-0.596115 0.711834,-1.205023 0.446064,-0.943851 0.628639,-1.189019 1.486381,-1.995975 0.175178,-0.164805 0.394953,-0.377945 0.488378,-0.473641 0.781082,-0.80005 1.134603,-1.566447 1.078389,-2.337853 -0.02211,-0.303279 -0.06738,-0.538048 -0.223699,-1.159732 -0.104757,-0.416616 -0.156476,-0.659858 -0.192919,-0.907259 -0.03251,-0.220747 -0.03554,-0.727203 -0.0056,-0.928981 0.07576,-0.509937 0.258987,-1.023383 0.571147,-1.600526 0.137639,-0.254473 0.295263,-0.514418 0.651817,-1.074944 0.18201,-0.286125 0.395576,-0.627726 0.474592,-0.759111 0.61346,-1.020038 1.158056,-2.098345 1.616655,-3.201002 0.127022,-0.305406 0.292292,-0.728021 0.292292,-0.747414 0,-0.03138 -0.170931,-0.0079 -0.458905,0.06295 -0.448367,0.110347 -0.821203,0.06833 -1.239555,-0.1397 -0.505859,-0.251539 -0.967976,-0.701859 -1.40407,-1.368231 -0.642254,-0.981381 -1.137754,-2.100194 -1.436471,-3.243469 -0.04034,-0.154459 -0.04891,-0.202447 -0.04458,-0.250269 0.0094,-0.10388 0.07137,-0.189728 0.166953,-0.231219 0.145126,-0.063 0.754607,-0.07804 1.141322,-0.02817 0.563242,0.07262 0.959555,0.190664 1.905736,0.567643 0.68356,0.272343 0.992546,0.361238 1.256071,0.361356 0.260832,1.22e-4 0.424272,-0.0652 0.686793,-0.274491 0.131141,-0.104549 0.386928,-0.360737 0.49313,-0.493908 0.489232,-0.613451 0.791093,-1.412882 0.913831,-2.420123 0.06841,-0.561683 0.0757,-1.27944 0.02026,-1.987189 -0.164549,-2.098106 -0.904582,-4.855425 -2.116873,-7.887457 -0.112821,-0.282162 -0.130039,-0.359413 -0.108475,-0.486648 0.0297,-0.175322 0.14807,-0.334964 0.306997,-0.414069 0.09952,-0.04953 0.175037,-0.06457 0.294141,-0.05852 0.176689,0.009 0.305022,0.08075 0.422336,0.236249 0.09376,0.124275 0.359874,0.505259 0.55256,0.79107 1.318161,1.955235 2.486227,4.192008 3.363664,6.441184 1.138275,2.917802 1.843592,5.868675 2.105778,8.81004 0.128766,1.444575 0.158429,2.989538 0.08541,4.448496 -0.298411,5.962609 -2.268675,11.666683 -5.715369,16.54649 -0.819476,1.160218 -1.684828,2.223442 -2.71329,3.333715 -0.262409,0.28329 -1.243858,1.26465 -1.529748,1.52963 -2.578295,2.38968 -5.386652,4.262358 -8.520086,5.681428 -3.765941,1.70552 -7.787608,2.63364 -11.997137,2.76869 -0.378981,0.0121 -1.595869,0.0117 -1.980059,-8.4e-4 z m 2.208321,-0.57167 c 1.453769,-0.0648 2.671153,-0.19032 3.970737,-0.40947 7.016282,-1.18321 13.39575,-4.753628 18.10671,-10.133831 4.572851,-5.222461 7.235869,-11.777464 7.602057,-18.712345 0.0512,-0.97014 0.0551,-2.139007 0.01026,-3.078913 -0.09827,-2.060281 -0.375115,-3.956781 -0.866153,-5.93371 -0.896588,-3.609679 -2.426731,-7.108047 -4.447746,-10.168862 -0.263935,-0.399732 -0.672652,-0.989863 -0.680283,-0.982235 -0.0018,0.0018 0.04601,0.127279 0.106285,0.278783 1.015845,2.55311 1.712701,4.975901 1.990842,6.921663 0.115566,0.808377 0.155851,1.395616 0.146687,2.138513 -0.0059,0.468441 -0.0178,0.66828 -0.06121,1.014715 -0.129588,1.034642 -0.448319,1.894753 -0.948166,2.55868 -0.290953,0.386451 -0.708292,0.766482 -1.011275,0.920859 -0.22029,0.112246 -0.413798,0.156761 -0.68147,0.156761 -0.374392,0 -0.697125,-0.0857 -1.44074,-0.382567 -0.904821,-0.36123 -1.280199,-0.475894 -1.788956,-0.546468 -0.147718,-0.02049 -0.605163,-0.03468 -0.605163,-0.01876 0,0.03884 0.172781,0.571916 0.271072,0.836328 0.27536,0.740731 0.66748,1.509211 1.088884,2.134002 0.445626,0.660702 0.930211,1.075378 1.409192,1.205899 0.0576,0.01569 0.126647,0.02383 0.235443,0.02767 0.141387,0.0051 0.163905,0.0032 0.276041,-0.02333 0.06715,-0.01587 0.181815,-0.04291 0.254804,-0.0601 0.171922,-0.04051 0.43037,-0.05287 0.544121,-0.02604 0.285791,0.06742 0.457866,0.317572 0.422226,0.613794 -0.01356,0.112766 -0.04914,0.216493 -0.217758,0.634984 -0.471597,1.170441 -0.997655,2.241102 -1.640157,3.338157 -0.164498,0.280876 -0.349289,0.579684 -0.617712,0.998857 -0.394105,0.615447 -0.559837,0.895141 -0.720052,1.215202 -0.31657,0.632391 -0.449931,1.147132 -0.431976,1.667296 0.01117,0.323782 0.05048,0.542684 0.219268,1.220949 0.18938,0.761073 0.226747,0.991374 0.227362,1.401433 4.02e-4,0.270023 -0.01207,0.401191 -0.05753,0.605167 -0.127007,0.569872 -0.420159,1.112582 -0.912255,1.68887 -0.154834,0.181322 -0.345589,0.375852 -0.637637,0.650248 -0.865555,0.81325 -1.049568,1.039241 -1.358804,1.668772 -0.06884,0.140143 -0.194421,0.395747 -0.279071,0.568008 -0.156444,0.318374 -0.277982,0.531994 -0.416783,0.732565 -0.442383,0.639261 -1.012567,1.166805 -1.71806,1.589588 -0.187676,0.112467 -0.587277,0.30975 -0.799201,0.394572 -0.502807,0.20124 -1.159033,0.362269 -1.475787,0.362143 -0.497603,-2.03e-4 -0.951096,-0.286944 -1.16048,-0.733763 -0.05421,-0.115673 -0.09012,-0.24132 -0.112096,-0.39223 -0.06308,-0.433096 -0.180671,-0.829446 -0.502197,-1.692763 -0.290949,-0.781209 -0.368151,-1.012704 -0.464282,-1.392114 -0.106783,-0.421485 -0.147478,-0.731435 -0.14688,-1.11879 9.32e-4,-0.602026 0.09225,-1.065344 0.422701,-2.14462 0.205337,-0.670631 0.262287,-0.879161 0.323473,-1.184385 0.07351,-0.36671 0.102235,-0.670759 0.0932,-0.986568 -0.01637,-0.571473 -0.158754,-0.996942 -0.460244,-1.3751 -0.03491,-0.04381 -0.13215,-0.158461 -0.21608,-0.254808 -0.269603,-0.309507 -0.384435,-0.468931 -0.47797,-0.663561 -0.162516,-0.33816 -0.195741,-0.665761 -0.143209,-1.412049 0.04209,-0.597897 -0.0018,-0.84104 -0.183986,-1.016819 -0.100529,-0.09705 -0.201688,-0.144475 -0.433549,-0.203251 -0.275711,-0.06989 -0.547665,-0.09581 -0.925014,-0.08817 -0.557383,0.0113 -1.001693,0.08765 -2.083044,0.358033 -0.83792,0.209519 -1.250032,0.290881 -1.751793,0.34586 -0.209045,0.02292 -0.753754,0.03206 -0.9477,0.01591 -0.69225,-0.05758 -1.263045,-0.263313 -1.754361,-0.632343 -0.901888,-0.677405 -1.470635,-1.8507 -1.772673,-3.656932 -0.306309,-1.831759 -0.268395,-3.011505 0.128981,-4.013663 0.152009,-0.38335 0.319944,-0.681068 0.769721,-1.364596 0.402414,-0.611556 0.563844,-0.905671 0.69277,-1.262175 0.02559,-0.07075 0.09021,-0.281528 0.143598,-0.468389 0.14326,-0.501351 0.197619,-0.655058 0.313034,-0.885197 0.282517,-0.563319 0.763574,-0.921945 1.531336,-1.141596 0.273342,-0.0782 0.487057,-0.121262 1.797733,-0.36218 0.686118,-0.126122 1.713309,-0.315104 2.282642,-0.419965 0.569334,-0.104866 1.081645,-0.196032 1.138473,-0.202597 0.119814,-0.01384 0.274486,-9.33e-4 0.40239,0.03427 0.169036,0.04619 0.36812,0.164611 0.496445,0.2953 0.09184,0.09354 0.144272,0.17283 0.245792,0.371716 0.120239,0.235568 0.205147,0.355324 0.365809,0.515973 0.185935,0.185917 0.360827,0.303823 0.574982,0.387632 0.538175,0.210617 1.166678,0.12698 1.658339,-0.22068 0.05732,-0.04051 0.179125,-0.150696 0.311058,-0.281345 0.241853,-0.239498 0.328945,-0.303113 0.494753,-0.361407 0.08353,-0.02935 0.10837,-0.0331 0.246823,-0.03694 0.173152,-0.0048 0.263219,0.0071 0.498995,0.06663 0.269079,0.06782 0.468438,0.14084 1.029846,0.377186 0.387377,0.163083 0.521847,0.215985 0.727631,0.286256 0.258561,0.0883 0.37951,0.118807 0.470214,0.118612 0.220073,-4.52e-4 0.418568,-0.14221 0.48208,-0.344246 0.02093,-0.06656 0.02383,-0.09685 0.02224,-0.230572 -0.009,-0.748169 -0.486419,-1.438431 -1.193446,-1.725576 -0.14202,-0.05768 -0.262392,-0.08873 -0.678586,-0.175055 -0.528005,-0.109516 -1.017939,-0.241995 -1.528835,-0.413397 -1.195342,-0.401029 -2.150973,-0.930075 -2.874653,-1.591426 -0.07743,-0.07076 -0.158651,-0.137763 -0.180486,-0.148884 -0.149625,-0.07621 -0.393672,-0.0905 -0.549546,-0.03218 -0.07152,0.02676 -0.174739,0.118576 -0.206083,0.183324 -0.02622,0.05416 -0.02713,0.09969 -0.0053,0.261588 0.02559,0.189734 0.01017,0.294691 -0.06692,0.45619 -0.04115,0.08618 -0.06181,0.114334 -0.144837,0.197343 -0.08433,0.08431 -0.111247,0.103876 -0.208322,0.151429 -0.147305,0.07216 -0.244701,0.09165 -0.418667,0.08378 -0.160537,-0.0072 -0.235677,-0.02643 -0.382912,-0.09767 -0.152907,-0.07398 -0.232254,-0.13553 -0.424676,-0.32937 -0.08759,-0.08824 -0.182553,-0.174084 -0.211035,-0.190774 -0.257214,-0.150734 -0.653712,-0.04734 -0.969778,0.252896 -0.112943,0.107283 -0.215887,0.23013 -0.432939,0.51663 -0.256327,0.338341 -0.348565,0.449078 -0.504326,0.605472 -0.51072,0.512794 -1.099496,0.833084 -1.738463,0.945705 -0.159641,0.02813 -0.472968,0.03848 -0.640753,0.02112 -0.410186,-0.04241 -0.819973,-0.214796 -1.15622,-0.486413 -0.103202,-0.08336 -0.27545,-0.261447 -0.357359,-0.369465 -0.176291,-0.232486 -0.295929,-0.491535 -0.355388,-0.769505 -0.03486,-0.162984 -0.03495,-0.476487 -1.49e-4,-0.637015 0.104477,-0.482141 0.395657,-0.839372 0.792105,-0.971789 0.120725,-0.04033 0.263224,-0.06556 0.446328,-0.07904 0.450139,-0.03314 0.504796,-0.0406 0.623562,-0.08503 0.12188,-0.0456 0.19925,-0.134961 0.19925,-0.23012 0,-0.05525 -0.01302,-0.06634 -0.149489,-0.127588 -0.06084,-0.0273 -0.134516,-0.06355 -0.163712,-0.08057 -0.378489,-0.220535 -0.609508,-0.669424 -0.585923,-1.138491 0.02044,-0.406621 0.20843,-0.72048 0.575307,-0.960548 0.119284,-0.07806 0.320556,-0.173618 0.605167,-0.287332 0.614125,-0.245372 0.713881,-0.336313 1.024419,-0.933899 0.203646,-0.391881 0.301318,-0.546217 0.467258,-0.738362 0.210514,-0.243753 0.522322,-0.455332 0.812195,-0.551121 0.04672,-0.01544 0.136297,-0.03822 0.19907,-0.05062 l 0.114131,-0.02255 -1.27e-4,-0.04328 c -1.58e-4,-0.0542 -0.0217,-0.136195 -0.05071,-0.192918 -0.04761,-0.09312 -0.128434,-0.135966 -0.327775,-0.173753 -0.160834,-0.03048 -0.288598,-0.0416 -0.356287,-0.03099 -0.0317,0.005 -0.102677,0.02995 -0.157715,0.05549 -0.203686,0.09456 -0.330667,0.125805 -0.514124,0.126495 -0.07007,2.64e-4 -0.157344,-0.0053 -0.193934,-0.01228 -0.314629,-0.06031 -0.669948,-0.287732 -0.889049,-0.569053 -0.256612,-0.329483 -0.403475,-0.75637 -0.451115,-1.311283 -0.05696,-0.663485 0.137065,-1.631246 0.488509,-2.436587 0.279144,-0.639655 0.699078,-1.279477 1.043184,-1.589421 0.459512,-0.413891 1.010646,-0.675005 1.685193,-0.798397 0.312897,-0.05724 0.417144,-0.06467 0.902439,-0.06439 0.475514,2.84e-4 0.624172,0.01022 1.035149,0.06923 1.112197,0.159684 2.418129,0.554077 4.209613,1.271312 0.534074,0.213819 0.912142,0.371761 2.040545,0.852454 1.539976,0.656024 2.240962,0.937591 2.943101,1.182166 0.566571,0.197352 1.130438,0.352947 1.524019,0.420537 0.114141,0.0196 0.140963,0.02099 0.196411,0.01019 0.12577,-0.02451 0.23405,-0.110694 0.290571,-0.231284 0.02496,-0.05325 0.02844,-0.07376 0.02835,-0.166878 -1.71e-4,-0.151219 -0.01379,-0.175459 -0.20587,-0.366421 -0.823556,-0.818797 -2.107386,-1.824837 -3.412947,-2.674492 -2.26943,-1.476932 -4.781148,-2.682809 -7.443877,-3.573801 -5.50268,-1.84129 -11.409024,-2.210208 -16.886233,-1.054737 -5.884189,1.241327 -11.225425,4.140671 -15.491635,8.409213 -0.317565,0.317739 -0.361315,0.365593 -0.392907,0.429763 -0.03243,0.06586 -0.03553,0.08064 -0.03538,0.167986 1.32e-4,0.07683 0.005,0.106501 0.02455,0.15 0.05083,0.11305 0.150067,0.174583 0.294229,0.182436 0.108714,0.0059 0.183576,-0.0098 0.287942,-0.06062 0.09802,-0.04769 0.143693,-0.08325 0.424107,-0.330119 2.632248,-2.317387 5.494699,-3.659986 8.317222,-3.901097 0.511533,-0.04369 1.137725,-0.04894 1.412053,-0.01183 0.797795,0.107935 1.404902,0.399849 1.72288,0.828412 0.06789,0.0915 0.173678,0.298456 0.209159,0.409181 0.09199,0.287078 0.0915,0.597514 -0.0014,0.886515 -0.03937,0.12244 -0.13879,0.325118 -0.216146,0.440602 -0.23611,0.352482 -0.6806,0.752557 -1.268573,1.14181 -0.252079,0.166883 -0.466585,0.294523 -0.997991,0.593847 -1.051891,0.592493 -1.380154,0.819742 -1.789165,1.238599 -0.468366,0.479638 -0.735428,0.970543 -0.807792,1.484855 -0.02201,0.156489 -0.01494,0.417996 0.01507,0.55739 0.07844,0.364299 0.294884,0.741631 0.623344,1.086731 0.111049,0.116676 0.186304,0.176734 0.294753,0.23523 0.399007,0.215222 0.894342,0.150741 1.220821,-0.158922 0.200663,-0.190329 0.266596,-0.323182 0.484985,-0.977244 0.258961,-0.775574 0.42215,-1.100891 0.716649,-1.428641 0.312538,-0.347826 0.846285,-0.618995 1.460469,-0.741987 0.308302,-0.06174 0.453092,-0.07438 0.854468,-0.07463 0.297249,-1.8e-4 0.401331,0.0036 0.520229,0.01894 0.700644,0.09033 1.299289,0.329085 1.781447,0.710477 0.141577,0.11199 0.364799,0.337527 0.460933,0.465717 0.271043,0.361423 0.434696,0.766059 0.498194,1.231803 0.02652,0.194467 0.02412,0.52228 -0.0053,0.71611 -0.07162,0.472946 -0.258214,0.867649 -0.558714,1.181853 -0.227271,0.237635 -0.47901,0.390519 -0.998143,0.606187 -0.440312,0.182922 -0.623077,0.282754 -0.768095,0.419557 -0.184305,0.173864 -0.29917,0.405041 -0.285552,0.5747 0.0071,0.08952 0.04117,0.156272 0.156048,0.306572 0.17045,0.222991 0.217893,0.351103 0.210348,0.568006 -0.004,0.114792 -0.0094,0.14673 -0.03968,0.236534 -0.03766,0.111477 -0.113589,0.253144 -0.186218,0.347396 -0.06921,0.08982 -0.213143,0.222388 -0.313107,0.288389 -0.262364,0.173222 -0.86967,0.458477 -1.35969,0.638653 -0.367003,0.134942 -0.637127,0.214417 -1.249904,0.367736 -1.186347,0.29683 -1.646582,0.462145 -2.08309,0.748252 -0.298876,0.195896 -0.550924,0.471214 -0.69468,0.758827 -0.112303,0.22468 -0.180987,0.450337 -0.297784,0.978338 -0.148481,0.671247 -0.218974,0.895882 -0.372162,1.185964 -0.176105,0.333475 -0.40395,0.578924 -0.800108,0.861915 -0.06653,0.04753 -0.260031,0.172944 -0.429987,0.278696 -0.52112,0.324256 -0.685782,0.442886 -0.846124,0.60959 -0.195284,0.203036 -0.285817,0.382323 -0.322638,0.63894 -0.01004,0.06991 -0.02013,0.26302 -0.02623,0.501229 -0.01241,0.484756 -0.02916,0.597404 -0.121437,0.816188 -0.110919,0.262997 -0.30902,0.437563 -0.574499,0.506243 -0.09969,0.02578 -0.300512,0.02586 -0.403444,1.35e-4 -0.102155,-0.02555 -0.252263,-0.100168 -0.331219,-0.164692 -0.09429,-0.07706 -0.145821,-0.145127 -0.27991,-0.369757 -0.153504,-0.257158 -0.353771,-0.559576 -0.472695,-0.7138 -0.121846,-0.158014 -0.406022,-0.442122 -0.529949,-0.529828 -0.106167,-0.07514 -0.306989,-0.176081 -0.43194,-0.21713 -0.182075,-0.0598 -0.286476,-0.07591 -0.486424,-0.07505 -0.165662,9.33e-4 -0.197077,0.0036 -0.289881,0.02871 -0.252394,0.06772 -0.429975,0.203573 -0.537333,0.411066 -0.148613,0.287238 -0.155682,0.635395 -0.02115,1.042144 0.135089,0.408449 0.36596,0.76418 0.752461,1.159403 0.274879,0.281079 0.516201,0.487343 1.13182,0.967383 0.595062,0.464011 0.64526,0.507026 0.965973,0.82775 0.930653,0.930681 1.955252,2.264597 2.764041,3.598477 0.214328,0.353475 0.491387,0.849897 0.641787,1.149922 l 0.05956,0.118819 0.09843,-0.04578 c 0.38836,-0.180612 0.871793,-0.268879 1.31146,-0.239461 0.605653,0.04051 1.679542,0.251105 2.430835,0.476658 1.318118,0.395731 2.513277,0.984014 3.50133,1.723438 0.278566,0.208466 0.413013,0.356681 0.522633,0.576134 0.07674,0.153637 0.108759,0.269381 0.161506,0.583848 0.03722,0.221931 0.06431,0.331392 0.107917,0.436226 0.160644,0.386166 0.649212,0.795131 1.157762,0.969128 0.421212,0.144114 0.848266,0.172754 1.760799,0.118097 1.171762,-0.07019 1.843772,0.0023 2.532143,0.273048 0.173198,0.06813 0.415937,0.188841 0.552056,0.274526 0.295282,0.185881 0.57694,0.456166 0.740505,0.710613 0.298198,0.46388 0.393198,1.00915 0.242094,1.389532 -0.07097,0.178669 -0.146931,0.314462 -0.351105,0.627686 -0.249107,0.382155 -0.330615,0.54261 -0.450316,0.886512 -0.139253,0.400076 -0.220738,0.774517 -0.351168,1.613775 -0.158235,1.018139 -0.250292,1.411002 -0.447534,1.909907 -0.200812,0.507933 -0.428463,0.877406 -0.735713,1.194034 -0.225277,0.232149 -0.417646,0.370124 -0.76349,0.547598 -0.240528,0.123431 -0.313102,0.176547 -0.385359,0.282032 -0.06194,0.09042 -0.09916,0.177552 -0.199598,0.467146 -0.172871,0.498465 -0.31564,0.782741 -0.789141,1.571306 -0.140252,0.233574 -0.309687,0.522621 -0.376524,0.642326 -0.216194,0.387212 -0.303225,0.492142 -0.785946,0.947532 -0.371409,0.3504 -0.515571,0.52272 -0.637935,0.76249 -0.125481,0.24589 -0.180287,0.47802 -0.189098,0.80089 -0.01787,0.65472 0.20123,1.47135 0.585717,2.18317 0.09694,0.17947 0.203794,0.35941 0.377463,0.63563 0.242847,0.386228 0.31037,0.531118 0.325057,0.697428 0.02382,0.26979 -0.151019,0.47438 -0.47403,0.55469 -0.125009,0.0311 -0.218448,0.0369 -0.360976,0.0226 -0.535569,-0.0538 -1.064382,-0.31413 -1.597848,-0.78681 -0.141908,-0.12574 -0.411491,-0.39993 -0.542373,-0.551648 -0.729081,-0.84516 -1.460618,-2.07253 -2.088191,-3.50359 -0.364393,-0.83098 -0.823307,-2.115297 -1.270837,-3.556629 -0.392194,-1.263117 -0.525412,-1.624242 -0.806811,-2.187088 -0.288165,-0.576377 -0.57809,-0.991391 -0.961033,-1.375673 -0.312022,-0.31311 -0.572385,-0.50962 -1.258255,-0.949689 -0.775554,-0.497612 -1.046386,-0.698517 -1.373125,-1.018596 -0.675341,-0.66157 -1.049804,-1.429164 -1.519265,-3.114249 -0.180023,-0.646179 -0.222658,-1.085556 -0.143304,-1.476832 0.05274,-0.260063 0.130041,-0.423917 0.367063,-0.778103 0.201105,-0.300507 0.237131,-0.362662 0.27381,-0.472376 0.06481,-0.19387 0.03121,-0.304767 -0.203496,-0.6716 -0.238082,-0.372117 -0.309428,-0.56283 -0.310353,-0.829607 -9.32e-4,-0.269486 0.09165,-0.545428 0.278694,-0.830645 0.08216,-0.125285 0.217,-0.293296 0.303325,-0.37795 l 0.06399,-0.06274 -0.02857,-0.03387 c -0.01571,-0.01863 -0.358443,-0.40844 -0.761624,-0.86624 -0.894873,-1.016089 -1.497872,-1.705368 -1.708048,-1.95244 -0.172407,-0.202669 -0.519682,-0.555447 -0.696201,-0.707235 -0.715656,-0.615381 -1.550921,-1.087576 -2.532138,-1.431475 -0.350933,-0.122993 -0.497498,-0.188018 -0.647633,-0.287336 -0.11446,-0.07571 -0.219214,-0.173569 -0.294682,-0.275255 -0.221675,-0.298691 -0.323862,-0.724815 -0.528467,-2.203717 -0.179067,-1.294311 -0.328542,-1.801314 -0.729855,-2.475554 -0.349854,-0.587791 -0.651897,-1.196504 -0.892044,-1.797761 -0.513563,-1.285805 -0.801123,-2.632527 -0.873617,-4.091374 -0.01658,-0.333699 -0.007,-1.275462 0.01604,-1.588684 0.07756,-1.051021 0.242281,-2.031211 0.512066,-3.04706 0.03877,-0.145983 0.0702,-0.286 0.06986,-0.31115 -9.33e-4,-0.06478 -0.04688,-0.15304 -0.100127,-0.192195 -0.100302,-0.07376 -0.235924,-0.06369 -0.32227,0.02392 -0.04254,0.04317 -0.19871,0.2984 -0.442753,0.723614 -1.330178,2.31767 -2.348163,4.787952 -3.042924,7.384075 -0.539802,2.017087 -0.874317,4.115283 -0.993585,6.232139 -0.0358,0.635427 -0.04261,0.915366 -0.04261,1.751793 0,0.836423 0.0068,1.116362 0.04261,1.751793 0.210623,3.738282 1.087124,7.374401 2.599563,10.784154 1.74351,3.930701 4.320049,7.487031 7.528471,10.391355 4.978946,4.507038 11.243557,7.256608 17.910691,7.861108 0.713122,0.0647 1.1928,0.0924 2.102152,0.12172 0.219978,0.007 1.687473,-0.003 1.921663,-0.0142 z"
       id="path1" /><path
       style="fill:#98a8ba;fill-opacity:1;stroke:none;stroke-width:0.59326;stroke-linecap:round;stroke-linejoin:round;stroke-dasharray:none;stroke-opacity:1"
       d="m 33.710581,63.792984 c 0,-0.189459 0.805346,-0.539007 2.094249,-0.908973 1.918666,-0.550734 3.051476,-1.095164 3.307037,-1.589366 0.252895,-0.489044 0.254299,-0.929647 0.0041,-1.286854 -0.17457,-0.249233 -0.170954,-0.301435 0.03334,-0.481236 0.126034,-0.110924 0.538299,-0.356563 0.916146,-0.545868 1.11723,-0.559738 1.599007,-1.416387 1.481917,-2.634993 -0.09661,-1.005411 -0.676095,-1.828888 -1.630477,-2.316976 -0.6872,-0.351448 -0.921951,-0.40142 -1.862624,-0.396504 -1.864024,0.0097 -2.606036,0.53053 -3.282542,2.303883 -0.508042,1.331749 -1.145195,1.508875 -1.830423,0.508851 -0.366407,-0.534737 -0.376774,-1.006808 -0.03674,-1.67332 0.33363,-0.653969 0.780329,-1.024066 2.353566,-1.949965 0.700842,-0.412468 1.506373,-0.982056 1.790069,-1.265752 1.241633,-1.241634 0.826293,-2.888298 -0.843144,-3.342737 -0.793902,-0.216108 -3.139002,-0.06901 -4.361538,0.273588 -1.578603,0.442376 -3.763537,1.596816 -5.316026,2.808795 -0.760017,0.593322 -1.406562,1.054055 -1.436765,1.023852 -0.0302,-0.0302 0.352324,-0.438592 0.85006,-0.90753 4.892177,-4.609117 10.579136,-7.296247 17.505213,-8.271343 1.695013,-0.238634 5.89319,-0.200319 7.80167,0.0712 5.505481,0.783272 10.652578,2.807604 14.736489,5.795797 1.279417,0.936148 2.396717,1.916749 2.321894,2.037814 -0.0886,0.143362 -1.573336,-0.317211 -3.268605,-1.013939 -5.328675,-2.190003 -6.499733,-2.575594 -8.193284,-2.697775 -1.774726,-0.128038 -3.024001,0.386837 -3.822154,1.57526 -0.939336,1.398635 -1.296365,3.434787 -0.799304,4.558471 0.315355,0.712913 0.932391,1.158188 1.605996,1.158939 l 0.447241,4.93e-4 -0.411408,0.468567 c -0.226272,0.257712 -0.505121,0.64979 -0.619661,0.871285 -0.137567,0.266028 -0.458792,0.521344 -0.946401,0.752215 -0.405979,0.192222 -0.831223,0.491549 -0.944982,0.665169 -0.316818,0.483523 -0.286078,1.29121 0.06734,1.769228 l 0.301592,0.407926 h -0.417413 c -0.296891,0 -0.548339,0.130923 -0.870845,0.45343 -0.403038,0.403037 -0.45343,0.53299 -0.45343,1.1693 0,1.387934 1.149898,2.356098 2.618357,2.20454 0.952336,-0.09829 1.686155,-0.541739 2.561094,-1.547678 0.388734,-0.446936 0.760015,-0.812611 0.825067,-0.812611 0.06506,0 0.339368,0.150032 0.609583,0.333404 0.270212,0.183373 0.665689,0.333405 0.878835,0.333405 0.484403,0 1.042223,-0.532092 1.042223,-0.994153 0,-0.439791 0.182789,-0.428358 0.785685,0.04915 0.967984,0.766656 2.296381,1.320662 4.488462,1.871905 0.296889,0.07466 0.713206,0.316738 0.925145,0.537955 l 0.385342,0.402213 h -3.173043 -3.173045 l -0.396228,-0.333405 c -0.483614,-0.406934 -0.616637,-0.409107 -2.376458,-0.03882 -1.351101,0.284284 -1.75428,0.297345 -11.535538,0.373658 -5.574527,0.04349 -10.270533,0.127976 -10.435568,0.18774 -0.165035,0.05976 -0.300064,0.07856 -0.300064,0.04176 z"
       id="path29" /><path
       style="fill:#98a8ba;fill-opacity:1;stroke:none;stroke-width:0.59326;stroke-linecap:round;stroke-linejoin:round;stroke-dasharray:none;stroke-opacity:1"
       d="m 44.912979,104.14415 c -13.441143,-1.04529 -24.582,-10.537726 -27.673015,-23.57846 -0.543867,-2.294529 -0.774327,-4.346813 -0.778741,-6.934817 -0.0069,-4.038727 0.624039,-7.470306 2.042858,-11.110993 0.54951,-1.410043 1.983823,-4.35661 2.075876,-4.264557 0.03073,0.03073 -0.03985,0.56217 -0.156835,1.180978 -0.289477,1.531175 -0.190745,4.433461 0.2016,5.926135 0.154236,0.586791 0.633669,1.787049 1.065406,2.667237 0.695529,1.417986 0.815695,1.786786 1.054561,3.236561 0.148273,0.899917 0.369599,1.788854 0.491837,1.975413 0.136325,0.208059 0.707547,0.56444 1.477485,0.921792 1.629857,0.756469 1.948855,1.011902 3.628492,2.905452 l 1.40608,1.585157 -0.219472,0.460237 c -0.289841,0.607803 -0.277762,1.282427 0.03208,1.791928 0.249397,0.410101 0.248938,0.418425 -0.05351,0.970096 -0.167785,0.306045 -0.342426,0.736486 -0.388092,0.956534 -0.09971,0.480465 0.321159,2.213697 0.781917,3.220126 0.498508,1.088885 0.926013,1.561957 2.200072,2.434577 1.947627,1.333956 2.207375,1.733896 3.299039,5.079609 0.821385,2.517367 2.014332,5.050787 2.905659,6.170637 1.279028,1.606958 2.840156,2.245838 3.609033,1.476958 0.288792,-0.28879 0.19131,-0.76679 -0.328751,-1.611988 -0.490213,-0.7967 -0.888402,-2.22759 -0.761072,-2.73492 0.0505,-0.20119 0.439783,-0.74978 0.865083,-1.21908 0.509828,-0.56258 1.01262,-1.334902 1.475812,-2.266955 0.386396,-0.777522 0.758754,-1.413675 0.82746,-1.413675 0.284571,0 1.308341,-1.118026 1.559815,-1.703427 0.148946,-0.346724 0.400073,-1.320556 0.558063,-2.164068 0.212815,-1.136246 0.40574,-1.746625 0.744509,-2.355503 0.618608,-1.111838 0.585178,-1.93859 -0.10832,-2.678909 L 46.466821,82.76616 h 6.481885 6.481886 l -0.261723,0.900193 c -0.680208,2.339584 -0.668033,2.811326 0.136347,5.283799 0.299358,0.920151 0.544288,1.754348 0.544288,1.853772 0,0.09943 0.184251,0.357036 0.409448,0.572469 0.364552,0.348748 0.496552,0.390067 1.203885,0.376842 0.628334,-0.01175 1.003193,-0.118024 1.792872,-0.508306 1.253315,-0.619422 2.121897,-1.478168 2.78768,-2.756118 0.326903,-0.627484 0.887094,-1.378556 1.534388,-2.057233 1.207021,-1.265532 1.607058,-2.005845 1.607058,-2.974033 V 82.76616 h 3.543077 3.543077 l -0.09013,0.300065 c -0.04957,0.165035 -0.32941,0.918236 -0.621869,1.673781 -2.214601,5.721238 -6.343251,10.823396 -11.641953,14.387056 -5.366093,3.608988 -12.589408,5.515948 -19.004068,5.017088 z"
       id="path30" /><path
       style="fill:#98a8ba;fill-opacity:1;stroke:none;stroke-width:0.59326;stroke-linecap:round;stroke-linejoin:round;stroke-dasharray:none;stroke-opacity:1"
       d="m 29.864293,74.040545 c -0.233251,-0.324796 -0.943717,-1.059952 -1.578812,-1.633682 -1.927065,-1.74086 -2.287449,-2.137553 -2.457483,-2.705081 -0.141529,-0.472378 -0.131726,-0.570293 0.08058,-0.804891 0.502907,-0.555707 1.152266,-0.238976 2.077327,1.013232 0.581379,0.786984 0.984089,0.97127 1.581604,0.723773 0.397009,-0.164447 0.625724,-0.569773 0.71697,-1.270604 0.02865,-0.220047 0.06108,0.875188 0.07207,2.433854 0.01099,1.558667 1.49e-4,2.833941 -0.02409,2.833941 -0.02424,0 -0.234915,-0.265745 -0.468167,-0.590542 z"
       id="path31" /><path
       style="fill:#98a8ba;fill-opacity:1;stroke:none;stroke-width:0.59326;stroke-linecap:round;stroke-linejoin:round;stroke-dasharray:none;stroke-opacity:1"
       d="m 74.342951,62.590306 c -0.04518,-0.534459 -0.292374,-1.806392 -0.549326,-2.826517 -0.25695,-1.020126 -0.449854,-1.872102 -0.428676,-1.893281 0.12674,-0.126739 1.827215,3.467462 2.361508,4.991392 l 0.245474,0.70015 h -0.773417 -0.773419 z"
       id="path32" /><path
       style="fill:#98a88a;fill-opacity:1;stroke:none;stroke-width:0.59326;stroke-linecap:round;stroke-linejoin:round;stroke-dasharray:none;stroke-opacity:1"
       d="m 65.979899,62.953122 c -0.388503,-0.802539 -1.004335,-1.190486 -2.542401,-1.601605 -1.544693,-0.412889 -2.500224,-0.841662 -3.415257,-1.532518 -0.840786,-0.634801 -1.297486,-0.74874 -1.934429,-0.482608 -0.355719,0.148629 -0.517176,0.323 -0.637965,0.688991 L 57.288131,60.515383 56.976373,60.2225 c -0.368136,-0.345846 -1.170401,-0.383927 -1.752015,-0.08316 -0.20745,0.107276 -0.616948,0.499788 -0.909997,0.872249 -0.624508,0.793741 -1.654377,1.388724 -2.187303,1.263665 -0.470098,-0.110313 -1.079431,-0.700388 -1.079431,-1.045313 0,-0.413681 0.256187,-0.60185 0.819406,-0.60185 0.55742,0 1.143554,-0.423144 1.200754,-0.866852 0.06244,-0.484356 -0.141652,-0.952188 -0.483303,-1.107854 -0.554121,-0.252475 -0.414681,-0.584697 0.430609,-1.025936 0.591977,-0.30901 0.884865,-0.578106 1.286626,-1.182107 0.355874,-0.535011 0.671802,-0.845143 1.000214,-0.981862 0.264022,-0.109913 0.52413,-0.268113 0.578019,-0.351555 0.167856,-0.259914 0.111532,-0.945701 -0.102805,-1.251709 -0.289204,-0.412897 -1.121194,-0.642245 -1.654901,-0.456194 -1.548432,0.539786 -1.232069,-3.057404 0.388839,-4.421308 0.626713,-0.527342 1.585065,-0.667852 2.938524,-0.430832 1.413399,0.247516 2.317513,0.555718 5.646426,1.924803 4.340878,1.785275 5.155902,1.9965 5.81717,1.507603 l 0.379307,-0.280433 0.312911,0.386203 c 0.1721,0.212412 0.659193,0.773087 1.082427,1.245944 l 0.769519,0.859739 -0.225397,0.392731 c -0.220462,0.384135 -0.213339,0.424901 0.325494,1.862543 0.882103,2.35352 1.761595,5.779326 1.761595,6.861783 0,0.23714 -0.171192,0.249255 -3.522192,0.249255 h -3.522194 z"
       id="path33" /><path
       style="fill:#98a88a;fill-opacity:1;stroke:none;stroke-width:0.669989;stroke-linecap:round;stroke-linejoin:round;stroke-dasharray:none;stroke-opacity:1"
       d="M 29.160833,76.22079 C 27.644099,74.465834 26.99006,73.940839 25.412465,73.211988 L 24.123734,72.616593 23.95097,71.516486 C 23.638017,69.5237 23.455234,68.925826 22.723344,67.500998 21.661436,65.433695 21.31895,63.805092 21.42705,61.336802 c 0.04613,-1.05322 0.19506,-2.313695 0.330963,-2.801055 0.287903,-1.032441 0.133553,-1.654127 -0.460557,-1.855026 -0.346863,-0.117292 -0.32522,-0.161943 0.824916,-1.701856 0.649618,-0.869772 1.319532,-1.705523 1.488696,-1.857225 0.298863,-0.26801 0.316448,-0.266944 0.621046,0.03765 0.207499,0.2075 0.504406,0.312614 0.87826,0.310931 0.464042,-0.0021 0.766276,-0.165075 1.694361,-0.913725 2.685941,-2.166644 5.419432,-3.303105 8.003327,-3.327418 1.181183,-0.01112 1.786314,0.270795 1.786314,0.832182 0,0.447101 -0.386956,0.796114 -1.957928,1.765943 -1.802912,1.113016 -2.070023,1.329048 -2.562395,2.072395 -0.80503,1.215373 -0.738648,2.526198 0.180971,3.573586 0.551155,0.627732 1.326405,0.871462 2.105033,0.661799 0.67815,-0.182607 1.06346,-0.642784 1.486621,-1.77548 0.413525,-1.106902 0.622272,-1.320508 1.495097,-1.529896 1.324883,-0.317834 2.719621,0.299349 3.031899,1.341642 0.25533,0.852211 -0.03359,1.335502 -1.141643,1.909684 -1.299023,0.673141 -1.583403,1.239632 -1.209511,2.409378 0.08589,0.268725 -0.0088,0.362562 -0.639758,0.633994 -0.407316,0.175222 -1.276583,0.46484 -1.931706,0.643596 -0.655123,0.178755 -1.394456,0.426297 -1.642962,0.550093 -0.774814,0.385981 -1.427819,1.124298 -1.646915,1.862074 -0.114327,0.384981 -0.451342,1.018934 -0.748923,1.408785 -0.29758,0.389851 -0.541055,0.762186 -0.541055,0.827414 0,0.06522 -0.275814,0.309728 -0.61292,0.543341 -0.748318,0.518587 -1.043788,1.055848 -1.043788,1.897946 v 0.639982 L 28.4524,68.642492 c -0.558232,-0.626322 -0.927241,-0.899518 -1.37947,-1.02129 -0.822443,-0.22146 -1.487713,-0.07681 -1.954427,0.424943 -0.532793,0.572802 -0.627521,1.126349 -0.35385,2.067746 0.208728,0.717997 0.408689,0.962522 1.989564,2.432977 2.326083,2.163613 3.858994,4.216043 3.639859,4.873449 -0.03009,0.09026 -0.585047,-0.449522 -1.233243,-1.199527 z"
       id="path34" /><path
       style="fill:#98a88a;fill-opacity:1;stroke:none;stroke-width:0.669989;stroke-linecap:round;stroke-linejoin:round;stroke-dasharray:none;stroke-opacity:1"
       d="m 39.733564,99.597042 c -1.190855,-1.2939 -2.095833,-3.08281 -3.191217,-6.308235 -1.290256,-3.799242 -1.577576,-4.247073 -3.637912,-5.670256 -1.217212,-0.840793 -1.405547,-1.036176 -1.846189,-1.915274 -0.269885,-0.538429 -0.571507,-1.366708 -0.670271,-1.840619 -0.165585,-0.794547 -0.15376,-0.907579 0.151828,-1.4513 0.397047,-0.706452 0.42044,-1.330654 0.07687,-2.051129 -0.178808,-0.374964 -0.207177,-0.581103 -0.09536,-0.692917 0.111816,-0.111817 0.299783,0.08999 0.631836,0.678355 0.527489,0.93466 1.520553,1.752186 2.56882,2.114748 0.507107,0.175392 1.355235,0.231209 3.539332,0.232934 2.117117,0.0016 3.03082,0.05934 3.474849,0.219303 0.380695,0.13715 1.212242,0.219556 2.259149,0.223881 1.820545,0.0075 2.447057,0.202435 2.977232,0.926241 l 0.287666,0.392727 -0.469414,0.831756 c -0.325218,0.576255 -0.564228,1.331926 -0.778069,2.459996 -0.367419,1.938241 -0.700367,2.653416 -1.457932,3.131644 -0.667489,0.421368 -0.817706,0.600292 -1.09195,1.300607 -0.356721,0.91093 -1.216526,2.310642 -1.804055,2.936888 -0.310854,0.33134 -0.652913,0.77188 -0.760128,0.97897 -0.294206,0.56826 -0.222218,2.06242 0.143579,2.98012 0.17457,0.43795 0.317399,0.82765 0.317399,0.866 0,0.184468 -0.282121,0.0293 -0.62606,-0.34444 z"
       id="path35" /><path
       style="fill:#98a88a;fill-opacity:1;stroke:none;stroke-width:0.669989;stroke-linecap:round;stroke-linejoin:round;stroke-dasharray:none;stroke-opacity:1"
       d="m 61.023297,90.492673 c -0.0994,-0.0994 -0.180732,-0.292138 -0.180732,-0.428301 0,-0.136161 -0.237211,-0.937033 -0.527133,-1.779712 -0.289925,-0.842682 -0.527136,-1.740931 -0.527136,-1.996108 0,-0.25518 0.185438,-1.169002 0.412082,-2.030718 l 0.412082,-1.566753 h 3.72969 3.72969 v 0.534614 c 0,0.760637 -0.34585,1.349487 -1.499386,2.552887 -0.59609,0.621859 -1.246435,1.505281 -1.585616,2.153885 -0.668038,1.277467 -1.446307,2.009023 -2.594222,2.438513 -0.93889,0.351284 -1.123336,0.367676 -1.369319,0.121693 z"
       id="path36" /><path
       style="fill:#16a34a;fill-opacity:1;stroke:none;stroke-width:0.669989;stroke-linecap:round;stroke-linejoin:round;stroke-dasharray:none;stroke-opacity:1"
       d="m 66.034599,62.952303 c -0.367528,-0.815032 -0.811077,-1.101872 -2.576008,-1.665882 -1.651644,-0.527807 -2.646989,-0.989159 -3.558278,-1.649294 -0.754753,-0.546739 -1.687964,-0.603826 -2.192155,-0.134099 -0.18129,0.168897 -0.329619,0.406108 -0.329619,0.527134 0,0.270987 0.0084,0.271116 -0.66486,-0.01019 -0.805389,-0.336513 -1.569363,-0.09071 -2.300827,0.740279 -0.725215,0.823887 -1.635578,1.447887 -2.112346,1.447887 -0.206322,0 -0.563183,-0.196089 -0.814828,-0.447735 -0.374755,-0.374754 -0.421101,-0.497501 -0.284337,-0.753049 0.09762,-0.182409 0.315849,-0.305315 0.542106,-0.305315 0.208287,0 0.57045,-0.09916 0.804803,-0.220344 0.738635,-0.381963 0.813171,-1.025005 0.202878,-1.750297 l -0.410333,-0.487654 0.447986,-0.311342 c 0.246392,-0.171239 0.888521,-0.758494 1.42695,-1.305011 0.538431,-0.546517 1.165343,-1.108686 1.393142,-1.249265 0.506518,-0.312581 0.566328,-1.081561 0.126401,-1.625108 -0.237063,-0.2929 -0.469297,-0.368828 -1.317835,-0.430862 l -1.030062,-0.07531 -0.138646,-0.561207 c -0.102937,-0.416666 -0.07231,-0.799812 0.118925,-1.487636 0.562789,-2.024234 1.613289,-2.8283 3.449373,-2.640188 1.369194,0.140278 2.519484,0.504029 6.141125,1.941979 4.587676,1.821508 5.306474,2.008074 5.963532,1.547851 0.297048,-0.208058 0.369861,-0.15855 1.316812,0.895316 0.955417,1.063292 0.998007,1.14288 0.909098,1.698883 -0.0735,0.459646 0.05377,1.019041 0.600256,2.638261 0.769875,2.281134 1.44423,4.904863 1.444528,5.620281 l 1.95e-4,0.466336 -1.830965,0.09845 c -1.007031,0.05415 -2.55555,0.09845 -3.441154,0.09845 h -1.610187 z"
       id="path37" /><path
       style="fill:#16a34a;fill-opacity:1;stroke:none;stroke-width:0.669989;stroke-linecap:round;stroke-linejoin:round;stroke-dasharray:none;stroke-opacity:1"
       d="m 61.07457,90.38204 c -0.23729,-0.383947 -1.135664,-3.671015 -1.135664,-4.155297 0,-0.496489 0.109619,-1.024001 0.617364,-2.970875 l 0.147295,-0.564787 h 3.700898 3.700899 l -0.104978,0.559583 c -0.150447,0.801947 -0.425123,1.268316 -1.371991,2.329491 -0.460136,0.515685 -1.086061,1.337101 -1.390945,1.825367 -1.07568,1.722697 -1.442661,2.121139 -2.419303,2.626716 -0.945254,0.489327 -1.578789,0.616428 -1.743575,0.349802 z"
       id="path38" /><path
       style="fill:#16a34a;fill-opacity:1;stroke:none;stroke-width:0.669989;stroke-linecap:round;stroke-linejoin:round;stroke-dasharray:none;stroke-opacity:1"
       d="m 39.730724,99.444862 c -1.079,-1.16844 -1.9318,-2.85757 -3.067707,-6.076172 -1.367431,-3.874627 -1.67599,-4.354648 -3.771684,-5.867552 -1.13424,-0.818819 -1.309395,-1.013823 -1.78999,-1.992838 -0.677777,-1.380696 -0.816801,-2.318451 -0.460767,-3.107993 0.257586,-0.571224 0.262885,-1.348749 0.01547,-2.269593 -0.0964,-0.358794 -0.0849,-0.355246 0.244184,0.07531 0.189942,0.248504 0.694214,0.801838 1.120604,1.229626 1.057142,1.06061 1.624353,1.201734 5.627814,1.400206 3.64284,0.180597 6.4362,0.391865 7.095364,0.536643 0.871583,0.191431 1.678498,1.199397 1.197928,1.496405 -0.22625,0.13983 -0.738824,1.640088 -1.054478,3.086364 -0.366537,1.679406 -0.731957,2.400964 -1.477637,2.917719 -0.431201,0.298823 -0.754686,0.741683 -1.217094,1.666235 -0.346391,0.692584 -1.034257,1.78262 -1.52859,2.4223 -0.508534,0.65806 -0.940619,1.38603 -0.995127,1.67659 -0.113134,0.60305 0.02252,1.64306 0.326807,2.5055 0.119026,0.33735 0.193801,0.63598 0.16617,0.66361 -0.02763,0.0276 -0.221701,-0.13543 -0.431265,-0.36236 z"
       id="path39" /><path
       style="fill:#16a34a;fill-opacity:1;stroke:none;stroke-width:0.669989;stroke-linecap:round;stroke-linejoin:round;stroke-dasharray:none;stroke-opacity:1"
       d="m 29.967542,77.003148 c 0,-0.06345 -0.638224,-0.769337 -1.418276,-1.568635 -1.233134,-1.263558 -1.609055,-1.547976 -2.879744,-2.178777 -0.803807,-0.399032 -1.477319,-0.794479 -1.496693,-0.878777 -0.01937,-0.08429 -0.174181,-0.879324 -0.344016,-1.766729 -0.226732,-1.184694 -0.5123,-2.051401 -1.074594,-3.261416 -0.42119,-0.906371 -0.867181,-2.077997 -0.991089,-2.603611 -0.252515,-1.071155 -0.294547,-4.119957 -0.07339,-5.323347 0.368011,-2.002474 0.364604,-2.128411 -0.06932,-2.562333 -0.470363,-0.470362 -0.505414,-0.386206 0.972669,-2.335314 1.140831,-1.504383 1.27884,-1.614408 1.628309,-1.298144 0.157749,0.142762 0.528739,0.246701 0.880548,0.246701 0.517713,0 0.817734,-0.156508 2.021374,-1.054463 2.456249,-1.83244 4.471021,-2.7366 6.747894,-3.02822 1.562902,-0.200175 2.464067,0.0084 2.54646,0.589417 0.06851,0.483063 -0.07819,0.622012 -1.988326,1.883407 -2.421175,1.598866 -3.048205,2.450362 -2.922313,3.968454 0.124711,1.50385 1.274897,2.587717 2.562748,2.41498 0.800586,-0.107382 1.257672,-0.569644 1.85836,-1.879405 0.417594,-0.910535 0.592946,-1.134529 1.031661,-1.317837 1.503489,-0.628197 3.399819,0.278472 3.399819,1.625514 0,0.48673 -0.233351,0.746413 -1.241777,1.381908 -1.134793,0.715131 -1.384978,1.104408 -1.266295,1.970296 0.116104,0.847059 0.019,0.915904 -2.311445,1.638697 -2.275411,0.705726 -2.674867,0.992217 -3.422739,2.454793 -0.797433,1.559501 -1.16911,2.086417 -2.112174,2.994369 -0.74009,0.712534 -0.790701,0.807919 -0.790701,1.490205 v 0.72894 l -0.74531,-0.777345 c -0.811215,-0.84608 -1.252514,-1.076993 -2.058257,-1.076993 -1.041661,0 -1.865339,0.770414 -1.865339,1.744715 0,1.056626 0.317617,1.535803 2.429519,3.665328 2.274898,2.293881 3.713098,4.22899 3.143046,4.22899 -0.08284,0 -0.15061,-0.05191 -0.150609,-0.115368 z"
       id="path40" /><path
       style="fill:#16a3be;fill-opacity:1;stroke:none;stroke-width:0.669989;stroke-linecap:round;stroke-linejoin:round;stroke-dasharray:none;stroke-opacity:1"
       d="m 34.221947,63.536563 c 0.103722,-0.0663 0.917744,-0.357351 1.808937,-0.646779 2.889117,-0.938286 3.385611,-1.340109 3.218218,-2.604563 l -0.09436,-0.712755 0.715397,-0.402699 c 0.393467,-0.221486 0.918718,-0.615639 1.167225,-0.875898 0.423391,-0.443411 0.45183,-0.547534 0.45183,-1.654205 0,-1.090625 -0.03525,-1.225304 -0.46056,-1.759777 -0.715264,-0.898844 -1.559229,-1.256511 -2.964913,-1.256511 -1.891256,0 -2.400484,0.337176 -3.355059,2.221496 -0.624001,1.231769 -1.0089,1.405084 -1.561177,0.702977 -0.495295,-0.629666 -0.52047,-0.927693 -0.14256,-1.687635 0.282651,-0.568385 0.586886,-0.858813 1.556215,-1.485587 2.74409,-1.774345 3.084535,-2.107642 3.200096,-3.132892 0.103045,-0.91421 -0.26557,-1.539848 -1.133442,-1.923749 -0.613676,-0.271457 -0.900576,-0.298901 -2.368834,-0.226589 -2.416655,0.11902 -4.356346,0.816128 -6.764915,2.431249 -0.570127,0.382312 -1.06273,0.668978 -1.094672,0.637036 -0.08887,-0.08887 2.596894,-2.217173 3.869386,-3.066244 6.767459,-4.515588 15.503659,-6.108981 23.645748,-4.312739 4.698733,1.036595 9.243608,3.127521 12.750884,5.866202 0.682554,0.532977 1.28877,1.046329 1.347145,1.140783 0.19953,0.322847 -0.822607,-0.0035 -4.286889,-1.368801 -4.660029,-1.836527 -5.143771,-1.985422 -6.758435,-2.080232 -1.860376,-0.109237 -2.613267,0.10777 -3.520099,1.014603 -1.234209,1.234207 -1.87636,3.884393 -1.25731,5.188949 0.291854,0.61503 0.994308,1.133978 1.536194,1.134879 0.322693,5.38e-4 0.312303,0.03719 -0.220869,0.779329 -0.307718,0.428322 -0.763285,0.885799 -1.012371,1.016617 -0.249085,0.130818 -0.674948,0.45134 -0.946361,0.712271 -0.558928,0.537346 -0.64314,1.133743 -0.263692,1.867511 0.217649,0.42089 0.2138,0.444351 -0.07293,0.444351 -0.166491,0 -0.520137,0.19427 -0.785879,0.431711 -0.420899,0.376073 -0.48317,0.528025 -0.48317,1.179025 0,0.909578 0.392388,1.640919 1.076678,2.006731 0.476284,0.254616 0.286062,0.265737 -6.099701,0.35662 -3.625223,0.0516 -7.557247,0.11452 -8.737829,0.139835 -1.180583,0.02531 -2.061651,-0.0082 -1.957929,-0.07452 z"
       id="path41" /><path
       style="fill:#16a3be;fill-opacity:1;stroke:none;stroke-width:0.669989;stroke-linecap:round;stroke-linejoin:round;stroke-dasharray:none;stroke-opacity:1"
       d="M 43.371819,103.9217 C 38.038176,103.19142 32.961104,101.10836 28.612053,97.865932 26.838644,96.543772 24.035305,93.744751 22.715537,91.978495 19.818374,88.1012 17.797875,83.471616 16.920341,78.69992 c -0.387593,-2.107584 -0.392908,-8.078926 -0.009,-10.166168 0.567974,-3.088364 1.460866,-5.770022 2.88348,-8.660067 0.622146,-1.263892 0.660179,-1.30969 0.562833,-0.677744 -0.05742,0.37276 -0.09958,1.660474 -0.0937,2.861588 0.01254,2.559059 0.184935,3.356133 1.254092,5.79848 0.924976,2.112985 0.881744,1.980729 1.223077,3.741542 0.159607,0.823354 0.398685,1.616889 0.531283,1.763407 0.132599,0.146521 0.921922,0.624342 1.75405,1.061824 1.392286,0.731979 1.636136,0.931391 3.05724,2.500106 l 1.544277,1.704683 -0.243183,0.676267 c -0.224558,0.62447 -0.224132,0.729246 0.0056,1.368008 0.235744,0.655577 0.233886,0.724476 -0.03553,1.317835 -0.360142,0.793167 -0.362725,1.43015 -0.01079,2.660799 0.544225,1.903056 1.101334,2.701194 2.732092,3.914109 1.842304,1.370257 2.150828,1.845336 3.227869,4.970401 0.857745,2.488772 2.449834,5.751922 3.17737,6.51234 1.240458,1.29654 2.175815,1.74459 3.043926,1.45809 0.721135,-0.238 0.773754,-0.69668 0.205235,-1.789058 -0.257636,-0.49503 -0.56793,-1.28206 -0.689542,-1.74896 -0.256647,-0.98533 -0.187874,-1.19221 0.789502,-2.37498 0.325494,-0.39389 0.919965,-1.305992 1.321045,-2.026891 0.401082,-0.720897 0.987972,-1.53668 1.304202,-1.81285 0.859265,-0.750411 1.266885,-1.578087 1.681223,-3.413731 0.205672,-0.911188 0.548072,-2.029466 0.760886,-2.485063 0.487579,-1.043805 0.517665,-2.056073 0.07773,-2.61536 l -0.312233,-0.396835 h 6.35266 c 5.019578,0 6.337763,0.03951 6.28168,0.188261 -0.810945,2.150895 -0.820756,3.509519 -0.04371,6.051451 0.328385,1.074239 0.744852,2.120901 0.928877,2.334453 0.292308,0.339213 0.444078,0.38515 1.226364,0.371187 1.748496,-0.03121 3.511226,-1.23448 4.680185,-3.194776 0.330062,-0.553502 1.045088,-1.514674 1.588948,-2.13594 1.148303,-1.311739 1.472065,-1.910543 1.567562,-2.89924 l 0.0691,-0.715396 h 3.438115 3.438114 l -0.381774,1.016614 c -1.648816,4.390602 -3.98515,8.040663 -7.207239,11.259906 -3.691579,3.68832 -7.835876,6.169868 -12.834104,7.684898 -2.994831,0.90778 -4.702378,1.15764 -8.254564,1.20789 -1.739544,0.0246 -3.60334,-0.0156 -4.141772,-0.0893 z"
       id="path42" /><path
       style="fill:#16a3be;fill-opacity:1;stroke:none;stroke-width:0.669989;stroke-linecap:round;stroke-linejoin:round;stroke-dasharray:none;stroke-opacity:1"
       d="m 58.386756,63.182343 c -0.495087,-0.435558 -0.496924,-0.435705 -1.953856,-0.156948 -0.617509,0.118149 -1.623145,0.256643 -2.234744,0.307764 -1.106658,0.0925 -1.109467,0.0918 -0.584864,-0.14638 0.289922,-0.13163 0.94166,-0.648885 1.448303,-1.149456 l 0.921168,-0.910128 0.616583,0.314557 c 0.33912,0.173006 0.757911,0.314557 0.930648,0.314557 0.410718,0 1.053424,-0.650251 1.053424,-1.065794 0,-0.310609 0.01642,-0.314574 0.338871,-0.08178 0.999555,0.721647 2.018119,1.207791 3.551708,1.695173 0.941855,0.299326 1.886806,0.70101 2.108538,0.896306 l 0.401802,0.353896 h -3.087503 c -3.068258,0 -3.090135,-0.0023 -3.510078,-0.371766 z"
       id="path43" /><path
       style="fill:#16a3be;fill-opacity:1;stroke:none;stroke-width:0.669989;stroke-linecap:round;stroke-linejoin:round;stroke-dasharray:none;stroke-opacity:1"
       d="m 74.488873,63.325395 c -0.05028,-0.131029 -0.09142,-0.444797 -0.09142,-0.697263 0,-0.252467 -0.174283,-1.236102 -0.387297,-2.185856 -0.213011,-0.949754 -0.358803,-1.755318 -0.32398,-1.790142 0.07827,-0.07827 1.374315,2.690176 1.858626,3.970182 l 0.356161,0.941311 h -0.660337 c -0.463205,0 -0.687628,-0.07112 -0.751754,-0.238232 z"
       id="path44" /><path
       style="fill:#16a3be;fill-opacity:1;stroke:none;stroke-width:0.669989;stroke-linecap:round;stroke-linejoin:round;stroke-dasharray:none;stroke-opacity:1"
       d="m 30.118152,74.25743 c 0,-0.08256 -0.889197,-1.014457 -1.975992,-2.070886 -1.086796,-1.056426 -2.073465,-2.148297 -2.192599,-2.426378 -0.194654,-0.454358 -0.190457,-0.534495 0.04141,-0.790702 0.141908,-0.156805 0.361586,-0.285102 0.488175,-0.285102 0.126588,0 0.684326,0.474422 1.239417,1.054271 1.132373,1.182875 1.550853,1.31426 2.180524,0.684589 l 0.369679,-0.36968 v 2.176999 c 0,1.197349 -0.03389,2.176997 -0.07531,2.176997 -0.04142,0 -0.07531,-0.06755 -0.07531,-0.150108 z"
       id="path45" /><rect
       style="fill:#ffffff;fill-opacity:1;stroke:#333333;stroke-width:1.21857;stroke-linecap:round;stroke-linejoin:round;stroke-dasharray:none;stroke-opacity:1"
       id="rect18"
       width="71.68528"
       height="22.010597"
       x="26.289532"
       y="61.077179"
       ry="5.3788328" /><text
       xml:space="preserve"
       style="font-style:normal;font-variant:normal;font-weight:600;font-stretch:normal;font-size:8.46667px;font-family:Kodchasan;-inkscape-font-specification:'Kodchasan, Semi-Bold';font-variant-ligatures:normal;font-variant-caps:normal;font-variant-numeric:normal;font-variant-east-asian:normal;text-align:start;writing-mode:lr-tb;direction:ltr;text-anchor:start;display:inline;fill:#333333;fill-opacity:1;stroke:none;stroke-width:0.3;stroke-linecap:round;stroke-linejoin:round;stroke-dasharray:none;stroke-opacity:1"
       id="text2"
       x="29.809986"
       y="69.649544"><tspan
         sodipodi:role="line"
         id="tspan16"
         x="29.809986"
         y="69.649544"><tspan
           id="tspan2"
           style="font-style:normal;font-variant:normal;font-weight:600;font-stretch:normal;font-size:8.46667px;font-family:Kodchasan;-inkscape-font-specification:'Kodchasan, Semi-Bold';font-variant-ligatures:normal;font-variant-caps:normal;font-variant-numeric:normal;font-variant-east-asian:normal;fill:#333333;fill-opacity:1;stroke:none;stroke-width:0.3;stroke-linecap:round;stroke-linejoin:round;stroke-dasharray:none;stroke-opacity:1">GOOD PLANET</tspan></tspan><tspan
         sodipodi:role="line"
         id="tspan17"
         x="29.809986"
         y="80.23288"><tspan
           style="font-style:normal;font-variant:normal;font-weight:600;font-stretch:normal;font-size:8.46667px;font-family:Kodchasan;-inkscape-font-specification:'Kodchasan, Semi-Bold';font-variant-ligatures:normal;font-variant-caps:normal;font-variant-numeric:normal;font-variant-east-asian:normal;fill:#333333;fill-opacity:1;stroke:none;stroke-width:0.3;stroke-linecap:round;stroke-linejoin:round;stroke-dasharray:none;stroke-opacity:1"
           id="tspan18">AWARD</tspan></tspan></text></g></svg>
